<?xml version="1.0" encoding="utf-8"?>
<!-- Generator: Adobe Illustrator 25.0.1, SVG Export Plug-In . SVG Version: 6.00 Build 0)  -->
<svg version="1.1" id="Layer_1" xmlns="http://www.w3.org/2000/svg" xmlns:xlink="http://www.w3.org/1999/xlink" x="0px" y="0px"
	 viewBox="0 0 257.2 282.88" style="enable-background:new 0 0 257.2 282.88;" xml:space="preserve">
<style type="text/css">
	.st0{fill:#FFFFFF;}
	.st1{fill:#58AACD;}
	.st2{fill:#2D67A0;}
	.st3{fill:#EDED95;}
	.st4{fill:#19416F;}
</style>
<g>
	<g>
		<g>
			<path class="st0" d="M206.5,43.07v123c0,9.04-7.39,16.38-16.47,16.38H67.12c-9.09,0-16.43-7.34-16.43-16.38v-123
				c0-9.09,7.34-16.38,16.43-16.38h122.96C199.16,26.69,206.5,34.03,206.5,43.07z"/>
		</g>
		<g>
			<path class="st1" d="M113.98,182.46H67.12c-9.09,0-16.43-7.34-16.43-16.38v-38.09l15.71,17.37l9.8-8.91L113.98,182.46z"/>
		</g>
		<g>
			<path class="st2" d="M199.3,29.51l-14.05,23.36l-58.77,98.38l-35-42.66l-0.13-0.09l-3.4-4.25H67.88l-17.19,15.53V43.07
				c0-9.09,7.34-16.38,16.43-16.38h122.91C193.48,26.69,196.66,27.72,199.3,29.51z"/>
		</g>
		<g>
			<path class="st3" d="M206.5,74.76v91.31c0,9.04-7.39,16.38-16.47,16.38h-47.89l3.49-5.86L206.5,74.76z"/>
		</g>
	</g>
	<g>
		<g>
			<path class="st2" d="M60.3,202.41h9.73l9.61,28.94h-8.24l-6.14-22.38h-0.16l-6.14,22.38h-8.26L60.3,202.41z M57.25,219.66h15.66
				v5.6H57.25V219.66z"/>
			<path class="st2" d="M76.91,202.41h8.86l5.11,21.38h0.16l5.13-21.38h8.84l-8.96,28.94H85.87L76.91,202.41z"/>
			<path class="st2" d="M111.88,202.41h9.73l9.61,28.94h-8.24l-6.14-22.38h-0.16l-6.14,22.38h-8.26L111.88,202.41z M108.83,219.66
				h15.66v5.6h-15.66V219.66z"/>
			<path class="st2" d="M136.73,208.69h-7.82v-6.28h23.49v6.28h-7.82v22.66h-7.84V208.69z"/>
			<path class="st2" d="M159.67,202.41h9.73l9.61,28.94h-8.24l-6.14-22.38h-0.16l-6.14,22.38h-8.26L159.67,202.41z M156.63,219.66
				h15.66v5.6h-15.66V219.66z"/>
			<path class="st2" d="M181.72,202.41h12.76c2.41,0,4.44,0.38,6.1,1.13c1.66,0.76,2.92,1.86,3.79,3.3c0.87,1.44,1.3,3.21,1.3,5.29
				v0.04c0,1.83-0.44,3.5-1.31,4.99c-0.88,1.5-2.04,2.58-3.5,3.25l5.66,10.93h-8.8l-4.79-9.77c-0.05,0-0.11,0-0.17,0s-0.12,0-0.19,0
				h-2.97v9.77h-7.86V202.41z M193.57,215.97c1.24,0,2.24-0.35,2.98-1.04c0.74-0.7,1.11-1.63,1.11-2.79v-0.04
				c0-1.14-0.38-2.05-1.14-2.76c-0.76-0.7-1.75-1.05-2.97-1.05h-3.97v7.68H193.57z"/>
		</g>
		<g>
			<path class="st4" d="M52.52,239.66h1.34v11.48h6.85l-0.21,1.18h-7.98V239.66z"/>
			<path class="st4" d="M64.91,247.99c0.03,2.08,1.12,3.47,2.81,3.47c1.57,0,2.14-0.83,2.48-1.57h1.28
				c-0.38,1.2-1.39,2.67-3.81,2.67c-2.86,0-4.04-2.36-4.04-4.7c0-2.68,1.4-4.86,4.12-4.86c2.95,0,3.91,2.41,3.91,4.29
				c0,0.25,0,0.47-0.02,0.7H64.91z M70.36,247.02c-0.03-1.59-0.87-2.96-2.64-2.96c-1.77,0-2.58,1.22-2.76,2.96H70.36z"/>
			<path class="st4" d="M82.29,250.43c0,0.81,0.07,1.63,0.12,1.9H81.2c-0.07-0.23-0.12-0.69-0.15-1.31
				c-0.34,0.69-1.14,1.54-2.98,1.54c-2.19,0-3.11-1.41-3.11-2.78c0-2.06,1.65-2.94,4.35-2.94c0.77,0,1.38,0,1.73,0v-0.81
				c0-0.88-0.29-1.97-2.21-1.97c-1.71,0-2,0.86-2.18,1.61h-1.24c0.11-1.14,0.83-2.66,3.45-2.66c2.28,0,3.43,0.98,3.43,2.95V250.43z
				 M81.05,247.78c-0.32,0-1.06,0-1.72,0c-1.96,0-3.08,0.51-3.08,1.93c0,1.04,0.73,1.79,1.99,1.79c2.43,0,2.8-1.6,2.8-3.39V247.78z"
				/>
			<path class="st4" d="M86.97,245.7c0-1.33-0.01-2.03-0.02-2.48h1.24c0.02,0.27,0.04,0.96,0.04,1.97c0.52-1.32,1.68-2.14,3.2-2.2
				v1.29c-1.91,0.08-3.2,1.25-3.2,3.55v4.5h-1.26V245.7z"/>
			<path class="st4" d="M94.81,245.51c0-0.79,0-1.58-0.02-2.3h1.23c0.04,0.29,0.06,1.32,0.05,1.64c0.38-0.87,1.16-1.86,3-1.86
				c1.73,0,3.12,1.02,3.12,3.5v5.84h-1.27v-5.65c0-1.52-0.61-2.54-2.14-2.54c-1.96,0-2.72,1.56-2.72,3.51v4.68h-1.27V245.51z"/>
			<path class="st4" d="M106.86,238.97h1.26v1.88h-1.26V238.97z M106.86,243.22h1.26v9.11h-1.26V243.22z"/>
			<path class="st4" d="M112.8,245.51c0-0.79,0-1.58-0.02-2.3h1.23c0.04,0.29,0.06,1.32,0.05,1.64c0.38-0.87,1.16-1.86,3-1.86
				c1.73,0,3.12,1.02,3.12,3.5v5.84h-1.27v-5.65c0-1.52-0.61-2.54-2.14-2.54c-1.96,0-2.72,1.56-2.72,3.51v4.68h-1.27V245.51z"/>
			<path class="st4" d="M132.25,251.54c0,2.99-1.22,4.65-4.16,4.65c-2.68,0-3.58-1.52-3.77-2.8h1.29c0.3,1.11,1.19,1.72,2.53,1.72
				c2.31,0,2.87-1.48,2.87-3.72v-0.8c-0.5,1.11-1.39,1.73-3.02,1.73c-2.24,0-3.85-1.81-3.85-4.54c0-3.01,1.79-4.8,4-4.8
				c1.84,0,2.63,0.87,2.87,1.54c0.02-0.47,0.04-1.11,0.06-1.32h1.2c0,0.49-0.03,1.76-0.03,2.64V251.54z M125.47,247.74
				c0,2.04,1.11,3.48,2.76,3.48c2.11,0,2.82-1.4,2.82-3.61c0-2.24-0.71-3.5-2.76-3.5C126.35,244.11,125.47,245.75,125.47,247.74z"/>
			<path class="st4" d="M153.8,248.82c-0.6,2.09-2.15,3.67-5.02,3.67c-3.77,0-5.74-2.89-5.74-6.47c0-3.46,1.99-6.56,5.78-6.56
				c2.96,0,4.58,1.65,4.99,3.76h-1.35c-0.53-1.51-1.54-2.6-3.7-2.6c-2.98,0-4.31,2.65-4.31,5.35c0,2.66,1.29,5.34,4.37,5.34
				c2.08,0,3.04-1.1,3.62-2.51H153.8z"/>
			<path class="st4" d="M158.56,247.99c0.03,2.08,1.12,3.47,2.81,3.47c1.57,0,2.14-0.83,2.48-1.57h1.28
				c-0.38,1.2-1.39,2.67-3.81,2.67c-2.86,0-4.04-2.36-4.04-4.7c0-2.68,1.4-4.86,4.12-4.86c2.95,0,3.91,2.41,3.91,4.29
				c0,0.25,0,0.47-0.02,0.7H158.56z M164.01,247.02c-0.03-1.59-0.87-2.96-2.64-2.96c-1.77,0-2.58,1.22-2.76,2.96H164.01z"/>
			<path class="st4" d="M169.27,245.51c0-0.79,0-1.58-0.02-2.3h1.23c0.04,0.29,0.06,1.32,0.05,1.64c0.38-0.87,1.16-1.86,3-1.86
				c1.73,0,3.12,1.02,3.12,3.5v5.84h-1.27v-5.65c0-1.52-0.61-2.54-2.14-2.54c-1.96,0-2.72,1.56-2.72,3.51v4.68h-1.27V245.51z"/>
			<path class="st4" d="M180,243.22h1.67v-2.8h1.27v2.8h2.14v1.08h-2.14v5.59c0,0.97,0.23,1.49,1.1,1.49c0.25,0,0.61-0.02,0.88-0.09
				v1c-0.36,0.14-0.84,0.17-1.25,0.17c-1.36,0-1.99-0.68-1.99-2.21v-5.95H180V243.22z"/>
			<path class="st4" d="M189.18,247.99c0.03,2.08,1.12,3.47,2.81,3.47c1.57,0,2.14-0.83,2.48-1.57h1.28
				c-0.38,1.2-1.39,2.67-3.81,2.67c-2.86,0-4.04-2.36-4.04-4.7c0-2.68,1.4-4.86,4.12-4.86c2.95,0,3.91,2.41,3.91,4.29
				c0,0.25,0,0.47-0.02,0.7H189.18z M194.63,247.02c-0.03-1.59-0.87-2.96-2.64-2.96c-1.77,0-2.58,1.22-2.76,2.96H194.63z"/>
			<path class="st4" d="M199.88,245.7c0-1.33-0.01-2.03-0.02-2.48h1.24c0.02,0.27,0.04,0.96,0.04,1.97c0.52-1.32,1.68-2.14,3.2-2.2
				v1.29c-1.91,0.08-3.2,1.25-3.2,3.55v4.5h-1.26V245.7z"/>
		</g>
	</g>
</g>
</svg>
